{
  "accessors": [
    {
      "bufferView": 1,
      "componentType": 5126,
      "count": 65532,
      "max": [
        25.61273956298828,
        25.383352279663086,
        24.47406005859375
      ],
      "min": [
        -17.160173416137695,
        -24.905885696411133,
        -25.099790573120117
      ],
      "type": "VEC3"
    },
    {
      "bufferView": 1,
      "byteOffset": 786384,
      "componentType": 5126,
      "count": 65532,
      "max": [
        0.9999679327011108,
        0.9999850988388062,
        0.9999875426292419
      ],
      "min": [
        -0.9967094659805298,
        -0.9999834895133972,
        -0.9999995827674866
      ],
      "type": "VEC3"
    },
    {
      "bufferView": 0,
      "componentType": 5125,
      "count": 387264,
      "type": "SCALAR"
    },
    {
      "bufferView": 1,
      "byteOffset": 1572768,
      "componentType": 5126,
      "count": 35743,
      "max": [
        24.69465446472168,
        24.702674865722656,
        24.404943466186523
      ],
      "min": [
        -25.607139587402344,
        -25.48520851135254,
        -25.119070053100586
      ],
      "type": "VEC3"
    },
    {
      "bufferView": 1,
      "byteOffset": 2001684,
      "componentType": 5126,
      "count": 35743,
      "max": [
        0.9997801780700684,
        0.9999299049377441,
        0.9999716281890869
      ],
      "min": [
        -0.9999831318855286,
        -0.9999887347221375,
        -0.9999995827674866
      ],
      "type": "VEC3"
    },
    {
      "bufferView": 0,
      "byteOffset": 1549056,
      "componentType": 5125,
      "count": 202560,
      "type": "SCALAR"
    }
  ],
  "asset": {
    "extras": {
      "author": "George Stergiopoulos (https://sketchfab.com/powertigervfx)",
      "license": "CC-BY-4.0 (http://creativecommons.org/licenses/by/4.0/)",
      "source": "https://sketchfab.com/3d-models/dark-raiden-alien-capsule-b2541d7ee8184013a3066fc8a58bb703",
      "title": "Dark Raiden - Alien Capsule"
    },
    "generator": "Sketchfab-12.67.0",
    "version": "2.0"
  },
  "bufferViews": [
    {
      "buffer": 0,
      "byteLength": 2359296,
      "name": "floatBufferViews",
      "target": 34963
    },
    {
      "buffer": 0,
      "byteLength": 2430600,
      "byteOffset": 2359296,
      "byteStride": 12,
      "name": "floatBufferViews",
      "target": 34962
    }
  ],
  "buffers": [
    {
      "byteLength": 4789896,
      "uri": "scene.bin"
    }
  ],
  "materials": [
    {
      "doubleSided": true,
      "name": "Scene_-_Root",
      "pbrMetallicRoughness": {
        "baseColorFactor": [
          0.000872857,
          0.0390670744,
          0.0651879173,
          1.0
        ],
        "roughnessFactor": 0.0
      }
    }
  ],
  "meshes": [
    {
      "name": "Object_0",
      "primitives": [
        {
          "attributes": {
            "NORMAL": 1,
            "POSITION": 0
          },
          "indices": 2,
          "material": 0,
          "mode": 4
        }
      ]
    },
    {
      "name": "Object_1",
      "primitives": [
        {
          "attributes": {
            "NORMAL": 4,
            "POSITION": 3
          },
          "indices": 5,
          "material": 0,
          "mode": 4
        }
      ]
    }
  ],
  "nodes": [
    {
      "children": [
        1
      ],
      "matrix": [
        1.0,
        0.0,
        0.0,
        0.0,
        0.0,
        2.220446049250313e-16,
        -1.0,
        0.0,
        0.0,
        1.0,
        2.220446049250313e-16,
        0.0,
        0.0,
        0.0,
        0.0,
        1.0
      ],
      "name": "Sketchfab_model"
    },
    {
      "children": [
        2,
        3
      ],
      "name": "Geode"
    },
    {
      "mesh": 0,
      "name": "Object_2"
    },
    {
      "mesh": 1,
      "name": "Object_3"
    }
  ],
  "scene": 0,
  "scenes": [
    {
      "name": "Sketchfab_Scene",
      "nodes": [
        0
      ]
    }
  ]
}
